<svg xmlns="http://www.w3.org/2000/svg" viewBox="0 0 18 18">
<defs><clipPath id="opportunity-a">
<path data-name="Rectangle 2878" transform="translate(.666 -.235)" d="M0 0h18v18H0z" fill="#0137f3">
</path></clipPath></defs><g transform="translate(-.666 .235)" clip-path="url(#opportunity-a)" fill="#0137f3">
<path data-name="Path 11022" d="M9.081 5.652a1.648 1.648 0 11-.74-.607 1.648 1.648 0 01.74.607zm-1.827.61a.549.549 0 10.247-.2.549.549 0 00-.246.201z" fill-rule="evenodd"></path><path data-name="Path 11023" d="M12.106 9.315a1.648 1.648 0 101.165.483 1.648 1.648 0 00-1.165-.483zm0 2.2a.549.549 0 11.388-.161.55.55 0 01-.388.158z" fill-rule="evenodd"></path><path data-name="Path 11024" d="M12.86 5.516a.715.715 0 01.3.3.522.522 0 01-.113.592l-5.496 5.493c-.5.5-1.268-.285-.777-.777l5.493-5.493a.518.518 0 01.593-.115z"></path><path data-name="Path 11025" d="M16.647 5.977a3.145 3.145 0 00.793.859 2.777 2.777 0 011.257 1.932 2.774 2.774 0 01-1.255 1.93 3.144 3.144 0 00-.793.859 3.254 3.254 0 00-.059 1.227 2.75 2.75 0 01-.465 2.2 2.742 2.742 0 01-2.2.465 3.251 3.251 0 00-1.226.059 3.154 3.154 0 00-.859.793 2.772 2.772 0 01-1.928 1.253 2.772 2.772 0 01-1.928-1.253 3.146 3.146 0 00-.859-.793 3.259 3.259 0 00-1.237-.063 2.746 2.746 0 01-2.193-.468 2.744 2.744 0 01-.464-2.2 3.253 3.253 0 00-.059-1.227 3.144 3.144 0 00-.793-.859A2.781 2.781 0 011.12 8.766a2.781 2.781 0 011.258-1.932 3.144 3.144 0 00.794-.857 3.251 3.251 0 00.059-1.226 2.747 2.747 0 01.465-2.2 2.745 2.745 0 012.192-.464 3.251 3.251 0 001.226-.059 3.154 3.154 0 00.859-.793A2.781 2.781 0 019.909-.023a2.781 2.781 0 011.931 1.257 3.145 3.145 0 00.86.794 3.258 3.258 0 001.226.059 2.751 2.751 0 012.2.464 2.743 2.743 0 01.464 2.2 3.251 3.251 0 00.057 1.226zm-1.015 5.159a3.76 3.76 0 011.086-1.265c.433-.38.881-.771.881-1.1s-.447-.724-.881-1.1a3.76 3.76 0 01-1.085-1.263 3.915 3.915 0 01-.145-1.731c.032-.531.069-1.131-.145-1.345s-.818-.177-1.352-.145a3.914 3.914 0 01-1.715-.141 3.766 3.766 0 01-1.263-1.085c-.38-.434-.772-.882-1.105-.882s-.722.444-1.1.876l-.005.006a3.766 3.766 0 01-1.264 1.082 3.9 3.9 0 01-1.714.14h-.013c-.531-.032-1.129-.067-1.341.146s-.177.817-.145 1.35a3.913 3.913 0 01-.138 1.718 3.76 3.76 0 01-1.087 1.264c-.433.38-.881.771-.881 1.1s.441.719.871 1.1l.01.009a3.76 3.76 0 011.087 1.266 3.915 3.915 0 01.14 1.715v.008c-.032.531-.069 1.131.145 1.345s.819.178 1.354.145h.02c.22-.013.442-.027.661-.027a2.7 2.7 0 011.037.169 3.765 3.765 0 011.259 1.086c.38.434.772.882 1.105.882s.726-.448 1.106-.883a3.765 3.765 0 011.263-1.085 3.919 3.919 0 011.714-.14h.017c.53.031 1.124.066 1.337-.146s.178-.816.145-1.349a3.912 3.912 0 01.141-1.721z" fill-rule="evenodd">
</path></g></svg>