<svg xmlns="http://www.w3.org/2000/svg" viewBox="0 0 24 22">
<path d="M17 .8c-1.9 0-3.7.9-5 2.3C10.8 1.6 9 .8 7 .8 3.7.7 
1 3.4 1 6.7v.2c0 4.2 3.7 7.6 9.4 12.8l1.6 1.4 1.6-1.4C19.3 14
.4 23 11 23 6.8c.1-3.3-2.6-6-5.9-6.1 0 .1-.1.1-.1.1z"></path>
<path d="M12 21.7l-2.2-2C4.2 14.5.5 11.1.5 6.8v-.2c0-1.7.7-3.4 2-4.6C3.7.8 5.4.1 7.1.2 9 .2 10.7 1 12 2.3 13.3 1 15.1.2 16.9.2h.2c3.6.1 6.4 3 6.4 6.6 0 4.4-3.7 7.8-9.3 12.9l-2.2 2zM7 1.3c-1.4 0-2.8.6-3.8 1.6S1.6 5.3 1.5 6.8V7c0 3.9 3.6 7.2 9 12.2l1.5 1.4 1.5-1.3c5.4-5 9-8.3 9-12.2.1-3-2.4-5.5-5.4-5.6h-.2c-1.8 0-3.4.8-4.6 2.1l-.3.3-.4-.5C10.5 2 8.8 1.3 7 1.3z"></path></svg>