<svg xmlns="http://www.w3.org/2000/svg" viewBox="0 0 16.8 16.8">
<path d="M14.6 6.7l1-2.1c.1-.2 0-.5-.2-.6h-.2l-2.3-.2-.1-2.3c0-.2-.2-.4-.5-.4h-.2l-2.1
 1-1.3-2c-.1-.1-.4-.2-.6 0L8 .2l-1.3 2-2.1-1c-.2-.2-.5-.1-.6.1v.2l-.2 2.3-2.3.2c-.3 0-.5.2-.4.4
 v.2l1 2.1L.2 8c-.2.1-.3.4-.1.6l.1.1 2 1.3-1 2.1c-.1.2 0 .5.2.6h.2l2.3.2.1 2.4c0 .2.2.4.5.4h.2l2
 .1-1 1.3 2c.1.2.4.3.6.1l.1-.1 1.3-2 2.1 1c.1.1.3.1.4 0 .1-.1.2-.2.2-.4L13 13l2.3-.2c.2 0 .4-.2.4-.5v-.
 2l-1-2.1 2-1.3c.2-.1.3-.4.1-.6l-.1-.1-2.1-1.3z"></path></svg>